<mxfile host="app.diagrams.net" agent="Mozilla/5.0 (Macintosh; Intel Mac OS X 10_15_7) AppleWebKit/605.1.15 (KHTML, like Gecko) Version/18.5 Safari/605.1.15" version="27.1.4">
  <diagram name="Page-1" id="HqNk3aDjr-ROuAEQBH89">
    <mxGraphModel dx="813" dy="535" grid="0" gridSize="10" guides="1" tooltips="1" connect="1" arrows="1" fold="1" page="1" pageScale="1" pageWidth="1169" pageHeight="827" math="0" shadow="0">
      <root>
        <mxCell id="0" />
        <mxCell id="1" parent="0" />
        <mxCell id="SvS_41ax5-k1D1L28kZn-1" value="" style="ellipse;whiteSpace=wrap;html=1;aspect=fixed;fillColor=#000000;" vertex="1" parent="1">
          <mxGeometry x="528" y="385" width="14" height="14" as="geometry" />
        </mxCell>
        <mxCell id="SvS_41ax5-k1D1L28kZn-2" value="&lt;b&gt;Earthquake_ID&lt;/b&gt;" style="text;html=1;align=center;verticalAlign=middle;whiteSpace=wrap;rounded=0;" vertex="1" parent="1">
          <mxGeometry x="460" y="390" width="60" height="30" as="geometry" />
        </mxCell>
        <mxCell id="SvS_41ax5-k1D1L28kZn-6" value="time" style="text;html=1;align=center;verticalAlign=middle;whiteSpace=wrap;rounded=0;" vertex="1" parent="1">
          <mxGeometry x="642" y="187" width="60" height="30" as="geometry" />
        </mxCell>
        <mxCell id="SvS_41ax5-k1D1L28kZn-7" value="" style="ellipse;whiteSpace=wrap;html=1;aspect=fixed;fillColor=#FFFFFF;" vertex="1" parent="1">
          <mxGeometry x="665" y="217" width="14" height="14" as="geometry" />
        </mxCell>
        <mxCell id="SvS_41ax5-k1D1L28kZn-8" value="" style="endArrow=none;html=1;rounded=0;entryX=0.5;entryY=1;entryDx=0;entryDy=0;exitX=1;exitY=0;exitDx=0;exitDy=0;" edge="1" parent="1" source="SvS_41ax5-k1D1L28kZn-1" target="SvS_41ax5-k1D1L28kZn-7">
          <mxGeometry width="50" height="50" relative="1" as="geometry">
            <mxPoint x="542" y="299" as="sourcePoint" />
            <mxPoint x="592" y="249" as="targetPoint" />
          </mxGeometry>
        </mxCell>
        <mxCell id="SvS_41ax5-k1D1L28kZn-9" value="latitudine" style="text;html=1;align=center;verticalAlign=middle;whiteSpace=wrap;rounded=0;" vertex="1" parent="1">
          <mxGeometry x="605" y="155" width="60" height="30" as="geometry" />
        </mxCell>
        <mxCell id="SvS_41ax5-k1D1L28kZn-10" value="" style="ellipse;whiteSpace=wrap;html=1;aspect=fixed;fillColor=#FFFFFF;" vertex="1" parent="1">
          <mxGeometry x="628" y="185" width="14" height="14" as="geometry" />
        </mxCell>
        <mxCell id="SvS_41ax5-k1D1L28kZn-11" value="longitude" style="text;html=1;align=center;verticalAlign=middle;whiteSpace=wrap;rounded=0;" vertex="1" parent="1">
          <mxGeometry x="545" y="131" width="60" height="30" as="geometry" />
        </mxCell>
        <mxCell id="SvS_41ax5-k1D1L28kZn-12" value="" style="ellipse;whiteSpace=wrap;html=1;aspect=fixed;fillColor=#FFFFFF;" vertex="1" parent="1">
          <mxGeometry x="568" y="161" width="14" height="14" as="geometry" />
        </mxCell>
        <mxCell id="SvS_41ax5-k1D1L28kZn-13" value="depth" style="text;html=1;align=center;verticalAlign=middle;whiteSpace=wrap;rounded=0;" vertex="1" parent="1">
          <mxGeometry x="478" y="124" width="60" height="30" as="geometry" />
        </mxCell>
        <mxCell id="SvS_41ax5-k1D1L28kZn-14" value="" style="ellipse;whiteSpace=wrap;html=1;aspect=fixed;fillColor=#FFFFFF;" vertex="1" parent="1">
          <mxGeometry x="501" y="154" width="14" height="14" as="geometry" />
        </mxCell>
        <mxCell id="SvS_41ax5-k1D1L28kZn-15" value="mag" style="text;html=1;align=center;verticalAlign=middle;whiteSpace=wrap;rounded=0;" vertex="1" parent="1">
          <mxGeometry x="420" y="131" width="60" height="30" as="geometry" />
        </mxCell>
        <mxCell id="SvS_41ax5-k1D1L28kZn-16" value="" style="ellipse;whiteSpace=wrap;html=1;aspect=fixed;fillColor=#FFFFFF;" vertex="1" parent="1">
          <mxGeometry x="443" y="161" width="14" height="14" as="geometry" />
        </mxCell>
        <mxCell id="SvS_41ax5-k1D1L28kZn-17" value="gap" style="text;html=1;align=center;verticalAlign=middle;whiteSpace=wrap;rounded=0;" vertex="1" parent="1">
          <mxGeometry x="374" y="155" width="60" height="30" as="geometry" />
        </mxCell>
        <mxCell id="SvS_41ax5-k1D1L28kZn-18" value="" style="ellipse;whiteSpace=wrap;html=1;aspect=fixed;fillColor=#FFFFFF;" vertex="1" parent="1">
          <mxGeometry x="397" y="185" width="14" height="14" as="geometry" />
        </mxCell>
        <mxCell id="SvS_41ax5-k1D1L28kZn-19" value="dmin" style="text;html=1;align=center;verticalAlign=middle;whiteSpace=wrap;rounded=0;" vertex="1" parent="1">
          <mxGeometry x="342" y="194" width="60" height="30" as="geometry" />
        </mxCell>
        <mxCell id="SvS_41ax5-k1D1L28kZn-21" value="rms" style="text;html=1;align=center;verticalAlign=middle;whiteSpace=wrap;rounded=0;" vertex="1" parent="1">
          <mxGeometry x="328" y="246" width="60" height="30" as="geometry" />
        </mxCell>
        <mxCell id="SvS_41ax5-k1D1L28kZn-23" value="" style="endArrow=none;html=1;rounded=0;entryX=0;entryY=1;entryDx=0;entryDy=0;exitX=1;exitY=0;exitDx=0;exitDy=0;" edge="1" parent="1" source="SvS_41ax5-k1D1L28kZn-1" target="SvS_41ax5-k1D1L28kZn-10">
          <mxGeometry width="50" height="50" relative="1" as="geometry">
            <mxPoint x="542" y="299" as="sourcePoint" />
            <mxPoint x="592" y="249" as="targetPoint" />
          </mxGeometry>
        </mxCell>
        <mxCell id="SvS_41ax5-k1D1L28kZn-24" value="" style="endArrow=none;html=1;rounded=0;entryX=0.5;entryY=1;entryDx=0;entryDy=0;exitX=1;exitY=0;exitDx=0;exitDy=0;" edge="1" parent="1" source="SvS_41ax5-k1D1L28kZn-1" target="SvS_41ax5-k1D1L28kZn-12">
          <mxGeometry width="50" height="50" relative="1" as="geometry">
            <mxPoint x="542" y="299" as="sourcePoint" />
            <mxPoint x="592" y="249" as="targetPoint" />
          </mxGeometry>
        </mxCell>
        <mxCell id="SvS_41ax5-k1D1L28kZn-25" value="" style="endArrow=none;html=1;rounded=0;entryX=0.5;entryY=1;entryDx=0;entryDy=0;exitX=0.5;exitY=0;exitDx=0;exitDy=0;" edge="1" parent="1" source="SvS_41ax5-k1D1L28kZn-1" target="SvS_41ax5-k1D1L28kZn-14">
          <mxGeometry width="50" height="50" relative="1" as="geometry">
            <mxPoint x="542" y="299" as="sourcePoint" />
            <mxPoint x="592" y="249" as="targetPoint" />
          </mxGeometry>
        </mxCell>
        <mxCell id="SvS_41ax5-k1D1L28kZn-26" value="" style="endArrow=none;html=1;rounded=0;entryX=1;entryY=1;entryDx=0;entryDy=0;exitX=0.5;exitY=0;exitDx=0;exitDy=0;" edge="1" parent="1" source="SvS_41ax5-k1D1L28kZn-1" target="SvS_41ax5-k1D1L28kZn-16">
          <mxGeometry width="50" height="50" relative="1" as="geometry">
            <mxPoint x="542" y="299" as="sourcePoint" />
            <mxPoint x="592" y="249" as="targetPoint" />
          </mxGeometry>
        </mxCell>
        <mxCell id="SvS_41ax5-k1D1L28kZn-27" value="" style="endArrow=none;html=1;rounded=0;entryX=1;entryY=1;entryDx=0;entryDy=0;exitX=0.5;exitY=0;exitDx=0;exitDy=0;" edge="1" parent="1" source="SvS_41ax5-k1D1L28kZn-1" target="SvS_41ax5-k1D1L28kZn-18">
          <mxGeometry width="50" height="50" relative="1" as="geometry">
            <mxPoint x="542" y="299" as="sourcePoint" />
            <mxPoint x="592" y="249" as="targetPoint" />
          </mxGeometry>
        </mxCell>
        <mxCell id="SvS_41ax5-k1D1L28kZn-30" value="" style="endArrow=none;html=1;rounded=0;entryX=1;entryY=0.5;entryDx=0;entryDy=0;exitX=0;exitY=0;exitDx=0;exitDy=0;" edge="1" parent="1" source="SvS_41ax5-k1D1L28kZn-1">
          <mxGeometry width="50" height="50" relative="1" as="geometry">
            <mxPoint x="542" y="299" as="sourcePoint" />
            <mxPoint x="364.99999999999227" y="283" as="targetPoint" />
          </mxGeometry>
        </mxCell>
        <mxCell id="SvS_41ax5-k1D1L28kZn-31" value="" style="endArrow=none;html=1;rounded=0;entryX=1;entryY=0.5;entryDx=0;entryDy=0;exitX=0;exitY=0;exitDx=0;exitDy=0;" edge="1" parent="1" source="SvS_41ax5-k1D1L28kZn-1">
          <mxGeometry width="50" height="50" relative="1" as="geometry">
            <mxPoint x="542" y="299" as="sourcePoint" />
            <mxPoint x="379.0000000000057" y="231" as="targetPoint" />
          </mxGeometry>
        </mxCell>
        <mxCell id="SvS_41ax5-k1D1L28kZn-32" value="Status_ID" style="text;html=1;align=center;verticalAlign=middle;whiteSpace=wrap;rounded=0;" vertex="1" parent="1">
          <mxGeometry x="724" y="187" width="60" height="30" as="geometry" />
        </mxCell>
        <mxCell id="SvS_41ax5-k1D1L28kZn-33" value="" style="ellipse;whiteSpace=wrap;html=1;aspect=fixed;fillColor=#FFFFFF;" vertex="1" parent="1">
          <mxGeometry x="747" y="217" width="14" height="14" as="geometry" />
        </mxCell>
        <mxCell id="SvS_41ax5-k1D1L28kZn-34" value="status" style="text;html=1;align=center;verticalAlign=middle;whiteSpace=wrap;rounded=0;" vertex="1" parent="1">
          <mxGeometry x="806" y="159" width="60" height="30" as="geometry" />
        </mxCell>
        <mxCell id="SvS_41ax5-k1D1L28kZn-35" value="" style="ellipse;whiteSpace=wrap;html=1;aspect=fixed;fillColor=#FFFFFF;" vertex="1" parent="1">
          <mxGeometry x="829" y="189" width="14" height="14" as="geometry" />
        </mxCell>
        <mxCell id="SvS_41ax5-k1D1L28kZn-36" value="updated" style="text;html=1;align=center;verticalAlign=middle;whiteSpace=wrap;rounded=0;" vertex="1" parent="1">
          <mxGeometry x="806" y="224" width="60" height="30" as="geometry" />
        </mxCell>
        <mxCell id="SvS_41ax5-k1D1L28kZn-37" value="" style="ellipse;whiteSpace=wrap;html=1;aspect=fixed;fillColor=#FFFFFF;" vertex="1" parent="1">
          <mxGeometry x="829" y="254" width="14" height="14" as="geometry" />
        </mxCell>
        <mxCell id="SvS_41ax5-k1D1L28kZn-38" value="" style="endArrow=none;html=1;rounded=0;entryX=0;entryY=0.5;entryDx=0;entryDy=0;exitX=1;exitY=0;exitDx=0;exitDy=0;" edge="1" parent="1" source="SvS_41ax5-k1D1L28kZn-33" target="SvS_41ax5-k1D1L28kZn-35">
          <mxGeometry width="50" height="50" relative="1" as="geometry">
            <mxPoint x="773" y="238" as="sourcePoint" />
            <mxPoint x="592" y="249" as="targetPoint" />
          </mxGeometry>
        </mxCell>
        <mxCell id="SvS_41ax5-k1D1L28kZn-39" value="" style="endArrow=none;html=1;rounded=0;entryX=0;entryY=0.5;entryDx=0;entryDy=0;exitX=1;exitY=1;exitDx=0;exitDy=0;" edge="1" parent="1" source="SvS_41ax5-k1D1L28kZn-33" target="SvS_41ax5-k1D1L28kZn-37">
          <mxGeometry width="50" height="50" relative="1" as="geometry">
            <mxPoint x="542" y="299" as="sourcePoint" />
            <mxPoint x="592" y="249" as="targetPoint" />
          </mxGeometry>
        </mxCell>
        <mxCell id="SvS_41ax5-k1D1L28kZn-40" value="" style="endArrow=none;html=1;rounded=0;entryX=0;entryY=1;entryDx=0;entryDy=0;exitX=1;exitY=0.5;exitDx=0;exitDy=0;" edge="1" parent="1" source="SvS_41ax5-k1D1L28kZn-1" target="SvS_41ax5-k1D1L28kZn-33">
          <mxGeometry width="50" height="50" relative="1" as="geometry">
            <mxPoint x="542" y="299" as="sourcePoint" />
            <mxPoint x="592" y="249" as="targetPoint" />
          </mxGeometry>
        </mxCell>
        <mxCell id="SvS_41ax5-k1D1L28kZn-41" value="Contributors_ID" style="text;html=1;align=center;verticalAlign=middle;whiteSpace=wrap;rounded=0;" vertex="1" parent="1">
          <mxGeometry x="658" y="355" width="60" height="30" as="geometry" />
        </mxCell>
        <mxCell id="SvS_41ax5-k1D1L28kZn-42" value="" style="ellipse;whiteSpace=wrap;html=1;aspect=fixed;fillColor=#FFFFFF;" vertex="1" parent="1">
          <mxGeometry x="710" y="385" width="14" height="14" as="geometry" />
        </mxCell>
        <mxCell id="SvS_41ax5-k1D1L28kZn-43" value="nst" style="text;html=1;align=center;verticalAlign=middle;whiteSpace=wrap;rounded=0;" vertex="1" parent="1">
          <mxGeometry x="829" y="312" width="60" height="30" as="geometry" />
        </mxCell>
        <mxCell id="SvS_41ax5-k1D1L28kZn-44" value="" style="ellipse;whiteSpace=wrap;html=1;aspect=fixed;fillColor=#FFFFFF;" vertex="1" parent="1">
          <mxGeometry x="829" y="320" width="14" height="14" as="geometry" />
        </mxCell>
        <mxCell id="SvS_41ax5-k1D1L28kZn-45" value="magNst" style="text;html=1;align=center;verticalAlign=middle;whiteSpace=wrap;rounded=0;" vertex="1" parent="1">
          <mxGeometry x="866" y="366" width="60" height="30" as="geometry" />
        </mxCell>
        <mxCell id="SvS_41ax5-k1D1L28kZn-46" value="" style="ellipse;whiteSpace=wrap;html=1;aspect=fixed;fillColor=#FFFFFF;" vertex="1" parent="1">
          <mxGeometry x="856" y="374" width="14" height="14" as="geometry" />
        </mxCell>
        <mxCell id="SvS_41ax5-k1D1L28kZn-47" value="net" style="text;html=1;align=center;verticalAlign=middle;whiteSpace=wrap;rounded=0;" vertex="1" parent="1">
          <mxGeometry x="856" y="421" width="60" height="30" as="geometry" />
        </mxCell>
        <mxCell id="SvS_41ax5-k1D1L28kZn-48" value="" style="ellipse;whiteSpace=wrap;html=1;aspect=fixed;fillColor=#FFFFFF;" vertex="1" parent="1">
          <mxGeometry x="856" y="429" width="14" height="14" as="geometry" />
        </mxCell>
        <mxCell id="SvS_41ax5-k1D1L28kZn-49" value="locationSource" style="text;html=1;align=center;verticalAlign=middle;whiteSpace=wrap;rounded=0;" vertex="1" parent="1">
          <mxGeometry x="874" y="479" width="60" height="30" as="geometry" />
        </mxCell>
        <mxCell id="SvS_41ax5-k1D1L28kZn-50" value="" style="ellipse;whiteSpace=wrap;html=1;aspect=fixed;fillColor=#FFFFFF;" vertex="1" parent="1">
          <mxGeometry x="842" y="487" width="14" height="14" as="geometry" />
        </mxCell>
        <mxCell id="SvS_41ax5-k1D1L28kZn-51" value="magSource" style="text;html=1;align=center;verticalAlign=middle;whiteSpace=wrap;rounded=0;" vertex="1" parent="1">
          <mxGeometry x="814" y="510" width="60" height="30" as="geometry" />
        </mxCell>
        <mxCell id="SvS_41ax5-k1D1L28kZn-52" value="" style="ellipse;whiteSpace=wrap;html=1;aspect=fixed;fillColor=#FFFFFF;" vertex="1" parent="1">
          <mxGeometry x="792" y="518" width="14" height="14" as="geometry" />
        </mxCell>
        <mxCell id="SvS_41ax5-k1D1L28kZn-53" value="" style="endArrow=none;html=1;rounded=0;entryX=0;entryY=0.5;entryDx=0;entryDy=0;exitX=1;exitY=0;exitDx=0;exitDy=0;" edge="1" parent="1" source="SvS_41ax5-k1D1L28kZn-42" target="SvS_41ax5-k1D1L28kZn-44">
          <mxGeometry width="50" height="50" relative="1" as="geometry">
            <mxPoint x="542" y="305" as="sourcePoint" />
            <mxPoint x="592" y="255" as="targetPoint" />
          </mxGeometry>
        </mxCell>
        <mxCell id="SvS_41ax5-k1D1L28kZn-54" value="" style="endArrow=none;html=1;rounded=0;entryX=0;entryY=0.5;entryDx=0;entryDy=0;exitX=1;exitY=0.5;exitDx=0;exitDy=0;" edge="1" parent="1" source="SvS_41ax5-k1D1L28kZn-42" target="SvS_41ax5-k1D1L28kZn-46">
          <mxGeometry width="50" height="50" relative="1" as="geometry">
            <mxPoint x="542" y="305" as="sourcePoint" />
            <mxPoint x="592" y="255" as="targetPoint" />
          </mxGeometry>
        </mxCell>
        <mxCell id="SvS_41ax5-k1D1L28kZn-55" value="" style="endArrow=none;html=1;rounded=0;entryX=0;entryY=0.5;entryDx=0;entryDy=0;exitX=1;exitY=0.5;exitDx=0;exitDy=0;" edge="1" parent="1" source="SvS_41ax5-k1D1L28kZn-42" target="SvS_41ax5-k1D1L28kZn-48">
          <mxGeometry width="50" height="50" relative="1" as="geometry">
            <mxPoint x="542" y="305" as="sourcePoint" />
            <mxPoint x="592" y="255" as="targetPoint" />
          </mxGeometry>
        </mxCell>
        <mxCell id="SvS_41ax5-k1D1L28kZn-56" value="" style="endArrow=none;html=1;rounded=0;entryX=0;entryY=0;entryDx=0;entryDy=0;exitX=1;exitY=1;exitDx=0;exitDy=0;" edge="1" parent="1" source="SvS_41ax5-k1D1L28kZn-42" target="SvS_41ax5-k1D1L28kZn-50">
          <mxGeometry width="50" height="50" relative="1" as="geometry">
            <mxPoint x="542" y="305" as="sourcePoint" />
            <mxPoint x="592" y="255" as="targetPoint" />
          </mxGeometry>
        </mxCell>
        <mxCell id="SvS_41ax5-k1D1L28kZn-57" value="" style="endArrow=none;html=1;rounded=0;entryX=0;entryY=0;entryDx=0;entryDy=0;exitX=1;exitY=1;exitDx=0;exitDy=0;" edge="1" parent="1" source="SvS_41ax5-k1D1L28kZn-42" target="SvS_41ax5-k1D1L28kZn-52">
          <mxGeometry width="50" height="50" relative="1" as="geometry">
            <mxPoint x="542" y="305" as="sourcePoint" />
            <mxPoint x="592" y="255" as="targetPoint" />
          </mxGeometry>
        </mxCell>
        <mxCell id="SvS_41ax5-k1D1L28kZn-58" value="" style="endArrow=none;html=1;rounded=0;entryX=0;entryY=0.5;entryDx=0;entryDy=0;exitX=1;exitY=0.5;exitDx=0;exitDy=0;" edge="1" parent="1" source="SvS_41ax5-k1D1L28kZn-1" target="SvS_41ax5-k1D1L28kZn-42">
          <mxGeometry width="50" height="50" relative="1" as="geometry">
            <mxPoint x="542" y="305" as="sourcePoint" />
            <mxPoint x="592" y="255" as="targetPoint" />
          </mxGeometry>
        </mxCell>
        <mxCell id="SvS_41ax5-k1D1L28kZn-59" value="Type_ID" style="text;html=1;align=center;verticalAlign=middle;whiteSpace=wrap;rounded=0;" vertex="1" parent="1">
          <mxGeometry x="671" y="509" width="60" height="30" as="geometry" />
        </mxCell>
        <mxCell id="SvS_41ax5-k1D1L28kZn-60" value="" style="ellipse;whiteSpace=wrap;html=1;aspect=fixed;fillColor=#FFFFFF;" vertex="1" parent="1">
          <mxGeometry x="681" y="539" width="14" height="14" as="geometry" />
        </mxCell>
        <mxCell id="SvS_41ax5-k1D1L28kZn-61" value="magType" style="text;html=1;align=center;verticalAlign=middle;whiteSpace=wrap;rounded=0;" vertex="1" parent="1">
          <mxGeometry x="617" y="609" width="60" height="30" as="geometry" />
        </mxCell>
        <mxCell id="SvS_41ax5-k1D1L28kZn-62" value="" style="ellipse;whiteSpace=wrap;html=1;aspect=fixed;fillColor=#FFFFFF;" vertex="1" parent="1">
          <mxGeometry x="640" y="595" width="14" height="14" as="geometry" />
        </mxCell>
        <mxCell id="SvS_41ax5-k1D1L28kZn-63" value="type" style="text;html=1;align=center;verticalAlign=middle;whiteSpace=wrap;rounded=0;" vertex="1" parent="1">
          <mxGeometry x="699" y="609" width="60" height="30" as="geometry" />
        </mxCell>
        <mxCell id="SvS_41ax5-k1D1L28kZn-64" value="" style="ellipse;whiteSpace=wrap;html=1;aspect=fixed;fillColor=#FFFFFF;" vertex="1" parent="1">
          <mxGeometry x="722" y="595" width="14" height="14" as="geometry" />
        </mxCell>
        <mxCell id="SvS_41ax5-k1D1L28kZn-67" value="" style="endArrow=none;html=1;rounded=0;entryX=0;entryY=0;entryDx=0;entryDy=0;exitX=1;exitY=1;exitDx=0;exitDy=0;" edge="1" parent="1" source="SvS_41ax5-k1D1L28kZn-1" target="SvS_41ax5-k1D1L28kZn-60">
          <mxGeometry width="50" height="50" relative="1" as="geometry">
            <mxPoint x="542" y="405" as="sourcePoint" />
            <mxPoint x="592" y="355" as="targetPoint" />
          </mxGeometry>
        </mxCell>
        <mxCell id="SvS_41ax5-k1D1L28kZn-68" value="" style="endArrow=none;html=1;rounded=0;entryX=0;entryY=1;entryDx=0;entryDy=0;exitX=1;exitY=0;exitDx=0;exitDy=0;" edge="1" parent="1" source="SvS_41ax5-k1D1L28kZn-62" target="SvS_41ax5-k1D1L28kZn-60">
          <mxGeometry width="50" height="50" relative="1" as="geometry">
            <mxPoint x="542" y="405" as="sourcePoint" />
            <mxPoint x="592" y="355" as="targetPoint" />
          </mxGeometry>
        </mxCell>
        <mxCell id="SvS_41ax5-k1D1L28kZn-69" value="" style="endArrow=none;html=1;rounded=0;entryX=1;entryY=1;entryDx=0;entryDy=0;exitX=0;exitY=0;exitDx=0;exitDy=0;" edge="1" parent="1" source="SvS_41ax5-k1D1L28kZn-64" target="SvS_41ax5-k1D1L28kZn-60">
          <mxGeometry width="50" height="50" relative="1" as="geometry">
            <mxPoint x="542" y="405" as="sourcePoint" />
            <mxPoint x="592" y="355" as="targetPoint" />
          </mxGeometry>
        </mxCell>
        <mxCell id="SvS_41ax5-k1D1L28kZn-70" value="place" style="text;html=1;align=center;verticalAlign=middle;whiteSpace=wrap;rounded=0;" vertex="1" parent="1">
          <mxGeometry x="447" y="609" width="60" height="30" as="geometry" />
        </mxCell>
        <mxCell id="SvS_41ax5-k1D1L28kZn-71" value="" style="ellipse;whiteSpace=wrap;html=1;aspect=fixed;fillColor=#FFFFFF;" vertex="1" parent="1">
          <mxGeometry x="470" y="595" width="14" height="14" as="geometry" />
        </mxCell>
        <mxCell id="SvS_41ax5-k1D1L28kZn-72" value="fault" style="text;html=1;align=center;verticalAlign=middle;whiteSpace=wrap;rounded=0;" vertex="1" parent="1">
          <mxGeometry x="528" y="609" width="60" height="30" as="geometry" />
        </mxCell>
        <mxCell id="SvS_41ax5-k1D1L28kZn-73" value="" style="ellipse;whiteSpace=wrap;html=1;aspect=fixed;fillColor=#FFFFFF;" vertex="1" parent="1">
          <mxGeometry x="551" y="595" width="14" height="14" as="geometry" />
        </mxCell>
        <mxCell id="SvS_41ax5-k1D1L28kZn-74" value="Location_ID" style="text;html=1;align=center;verticalAlign=middle;whiteSpace=wrap;rounded=0;" vertex="1" parent="1">
          <mxGeometry x="528" y="513" width="60" height="30" as="geometry" />
        </mxCell>
        <mxCell id="SvS_41ax5-k1D1L28kZn-77" value="" style="endArrow=none;html=1;rounded=0;entryX=0;entryY=1;entryDx=0;entryDy=0;exitX=1;exitY=0;exitDx=0;exitDy=0;" edge="1" parent="1" source="SvS_41ax5-k1D1L28kZn-71" target="SvS_41ax5-k1D1L28kZn-75">
          <mxGeometry width="50" height="50" relative="1" as="geometry">
            <mxPoint x="542" y="405" as="sourcePoint" />
            <mxPoint x="592" y="355" as="targetPoint" />
          </mxGeometry>
        </mxCell>
        <mxCell id="SvS_41ax5-k1D1L28kZn-75" value="" style="ellipse;whiteSpace=wrap;html=1;aspect=fixed;fillColor=#FFFFFF;" vertex="1" parent="1">
          <mxGeometry x="511" y="539" width="14" height="14" as="geometry" />
        </mxCell>
        <mxCell id="SvS_41ax5-k1D1L28kZn-78" value="" style="endArrow=none;html=1;rounded=0;exitX=1;exitY=1;exitDx=0;exitDy=0;entryX=0;entryY=0;entryDx=0;entryDy=0;" edge="1" parent="1" source="SvS_41ax5-k1D1L28kZn-75" target="SvS_41ax5-k1D1L28kZn-73">
          <mxGeometry width="50" height="50" relative="1" as="geometry">
            <mxPoint x="542" y="405" as="sourcePoint" />
            <mxPoint x="592" y="355" as="targetPoint" />
          </mxGeometry>
        </mxCell>
        <mxCell id="SvS_41ax5-k1D1L28kZn-79" value="horizontalError" style="text;html=1;align=center;verticalAlign=middle;whiteSpace=wrap;rounded=0;" vertex="1" parent="1">
          <mxGeometry x="193" y="303" width="60" height="30" as="geometry" />
        </mxCell>
        <mxCell id="SvS_41ax5-k1D1L28kZn-80" value="" style="ellipse;whiteSpace=wrap;html=1;aspect=fixed;fillColor=#FFFFFF;" vertex="1" parent="1">
          <mxGeometry x="268" y="311" width="14" height="14" as="geometry" />
        </mxCell>
        <mxCell id="SvS_41ax5-k1D1L28kZn-81" value="depthError" style="text;html=1;align=center;verticalAlign=middle;whiteSpace=wrap;rounded=0;" vertex="1" parent="1">
          <mxGeometry x="171" y="420" width="60" height="30" as="geometry" />
        </mxCell>
        <mxCell id="SvS_41ax5-k1D1L28kZn-82" value="" style="ellipse;whiteSpace=wrap;html=1;aspect=fixed;fillColor=#FFFFFF;" vertex="1" parent="1">
          <mxGeometry x="236" y="428" width="14" height="14" as="geometry" />
        </mxCell>
        <mxCell id="SvS_41ax5-k1D1L28kZn-83" value="magError" style="text;html=1;align=center;verticalAlign=middle;whiteSpace=wrap;rounded=0;" vertex="1" parent="1">
          <mxGeometry x="305" y="520" width="60" height="30" as="geometry" />
        </mxCell>
        <mxCell id="SvS_41ax5-k1D1L28kZn-84" value="" style="ellipse;whiteSpace=wrap;html=1;aspect=fixed;fillColor=#FFFFFF;" vertex="1" parent="1">
          <mxGeometry x="328" y="506" width="14" height="14" as="geometry" />
        </mxCell>
        <mxCell id="SvS_41ax5-k1D1L28kZn-85" value="Error_ID" style="text;html=1;align=center;verticalAlign=middle;whiteSpace=wrap;rounded=0;" vertex="1" parent="1">
          <mxGeometry x="345" y="358" width="60" height="30" as="geometry" />
        </mxCell>
        <mxCell id="SvS_41ax5-k1D1L28kZn-86" value="" style="ellipse;whiteSpace=wrap;html=1;aspect=fixed;fillColor=#FFFFFF;" vertex="1" parent="1">
          <mxGeometry x="351" y="384" width="14" height="14" as="geometry" />
        </mxCell>
        <mxCell id="SvS_41ax5-k1D1L28kZn-87" value="" style="endArrow=none;html=1;rounded=0;entryX=0;entryY=0.5;entryDx=0;entryDy=0;exitX=1;exitY=0.5;exitDx=0;exitDy=0;" edge="1" parent="1" source="SvS_41ax5-k1D1L28kZn-86" target="SvS_41ax5-k1D1L28kZn-1">
          <mxGeometry width="50" height="50" relative="1" as="geometry">
            <mxPoint x="542" y="455" as="sourcePoint" />
            <mxPoint x="592" y="405" as="targetPoint" />
          </mxGeometry>
        </mxCell>
        <mxCell id="SvS_41ax5-k1D1L28kZn-88" value="" style="endArrow=none;html=1;rounded=0;entryX=1;entryY=1;entryDx=0;entryDy=0;exitX=0;exitY=0;exitDx=0;exitDy=0;" edge="1" parent="1" source="SvS_41ax5-k1D1L28kZn-86" target="SvS_41ax5-k1D1L28kZn-80">
          <mxGeometry width="50" height="50" relative="1" as="geometry">
            <mxPoint x="542" y="455" as="sourcePoint" />
            <mxPoint x="592" y="405" as="targetPoint" />
          </mxGeometry>
        </mxCell>
        <mxCell id="SvS_41ax5-k1D1L28kZn-89" value="" style="endArrow=none;html=1;rounded=0;entryX=0;entryY=0.5;entryDx=0;entryDy=0;exitX=1;exitY=0;exitDx=0;exitDy=0;" edge="1" parent="1" source="SvS_41ax5-k1D1L28kZn-82" target="SvS_41ax5-k1D1L28kZn-86">
          <mxGeometry width="50" height="50" relative="1" as="geometry">
            <mxPoint x="542" y="455" as="sourcePoint" />
            <mxPoint x="592" y="405" as="targetPoint" />
          </mxGeometry>
        </mxCell>
        <mxCell id="SvS_41ax5-k1D1L28kZn-91" value="" style="endArrow=none;html=1;rounded=0;exitX=0.5;exitY=0;exitDx=0;exitDy=0;entryX=0.5;entryY=1;entryDx=0;entryDy=0;" edge="1" parent="1" source="SvS_41ax5-k1D1L28kZn-84" target="SvS_41ax5-k1D1L28kZn-86">
          <mxGeometry width="50" height="50" relative="1" as="geometry">
            <mxPoint x="542" y="455" as="sourcePoint" />
            <mxPoint x="592" y="405" as="targetPoint" />
          </mxGeometry>
        </mxCell>
        <mxCell id="SvS_41ax5-k1D1L28kZn-92" value="" style="endArrow=none;html=1;rounded=0;entryX=0.5;entryY=1;entryDx=0;entryDy=0;exitX=0.5;exitY=0;exitDx=0;exitDy=0;" edge="1" parent="1" source="SvS_41ax5-k1D1L28kZn-75" target="SvS_41ax5-k1D1L28kZn-1">
          <mxGeometry width="50" height="50" relative="1" as="geometry">
            <mxPoint x="542" y="455" as="sourcePoint" />
            <mxPoint x="592" y="405" as="targetPoint" />
          </mxGeometry>
        </mxCell>
        <mxCell id="SvS_41ax5-k1D1L28kZn-100" value="" style="shape=dataStorage;whiteSpace=wrap;html=1;fixedSize=1;labelBackgroundColor=default;strokeColor=light-dark(#ff2600, #ededed);strokeWidth=3;rotation=-180;" vertex="1" parent="1">
          <mxGeometry x="420" y="376.5" width="6" height="29" as="geometry" />
        </mxCell>
        <mxCell id="SvS_41ax5-k1D1L28kZn-105" value="" style="ellipse;whiteSpace=wrap;html=1;aspect=fixed;fillColor=#FFFFFF;labelBackgroundColor=default;strokeColor=light-dark(#0433ff, #ededed);strokeWidth=3;" vertex="1" parent="1">
          <mxGeometry x="507.5" y="539" width="22" height="22" as="geometry" />
        </mxCell>
        <mxCell id="SvS_41ax5-k1D1L28kZn-107" value="" style="ellipse;whiteSpace=wrap;html=1;aspect=fixed;fillColor=#FFFFFF;" vertex="1" parent="1">
          <mxGeometry x="511" y="542.5" width="14" height="14" as="geometry" />
        </mxCell>
        <mxCell id="SvS_41ax5-k1D1L28kZn-108" value="" style="ellipse;whiteSpace=wrap;html=1;aspect=fixed;fillColor=#FFFFFF;" vertex="1" parent="1">
          <mxGeometry x="351" y="272.5" width="14" height="14" as="geometry" />
        </mxCell>
        <mxCell id="SvS_41ax5-k1D1L28kZn-115" value="" style="ellipse;whiteSpace=wrap;html=1;aspect=fixed;fillColor=#FFFFFF;" vertex="1" parent="1">
          <mxGeometry x="368" y="221" width="14" height="14" as="geometry" />
        </mxCell>
        <mxCell id="SvS_41ax5-k1D1L28kZn-118" value="" style="shape=dataStorage;whiteSpace=wrap;html=1;fixedSize=1;labelBackgroundColor=default;strokeColor=light-dark(#ff2600, #ededed);strokeWidth=3;rotation=0;" vertex="1" parent="1">
          <mxGeometry x="622" y="377.5" width="6" height="29" as="geometry" />
        </mxCell>
        <mxCell id="SvS_41ax5-k1D1L28kZn-119" value="" style="shape=dataStorage;whiteSpace=wrap;html=1;fixedSize=1;labelBackgroundColor=default;strokeColor=light-dark(#ff2600, #ededed);strokeWidth=3;rotation=-40;" vertex="1" parent="1">
          <mxGeometry x="710" y="243.5" width="6" height="29" as="geometry" />
        </mxCell>
        <mxCell id="SvS_41ax5-k1D1L28kZn-121" value="" style="ellipse;whiteSpace=wrap;html=1;aspect=fixed;fillColor=#FFFFFF;" vertex="1" parent="1">
          <mxGeometry x="682.5" y="538.5" width="14" height="14" as="geometry" />
        </mxCell>
        <mxCell id="SvS_41ax5-k1D1L28kZn-122" value="" style="ellipse;whiteSpace=wrap;html=1;aspect=fixed;fillColor=#FFFFFF;labelBackgroundColor=default;strokeColor=light-dark(#0433ff, #ededed);strokeWidth=3;" vertex="1" parent="1">
          <mxGeometry x="679" y="538.5" width="22" height="22" as="geometry" />
        </mxCell>
        <mxCell id="SvS_41ax5-k1D1L28kZn-123" value="" style="ellipse;whiteSpace=wrap;html=1;aspect=fixed;fillColor=#FFFFFF;" vertex="1" parent="1">
          <mxGeometry x="682.5" y="542" width="14" height="14" as="geometry" />
        </mxCell>
      </root>
    </mxGraphModel>
  </diagram>
</mxfile>
